<svg width="34" height="34" viewBox="0 0 34 34" version="1.1" xmlns="http://www.w3.org/2000/svg" xmlns:xlink="http://www.w3.org/1999/xlink">
<title>ic_phone_48px</title>
<desc>Created using Figma</desc>
<g id="Canvas" transform="matrix(2 0 0 2 -6570 546)">
<g id="ic_phone_48px">
<g id="Group">
<g id="Vector">
<use xlink:href="#path0_fill" transform="translate(3285 -273)" fill="#111111"/>
</g>
</g>
</g>
</g>
<defs>
<path id="path0_fill" d="M 3.42361 7.36194C 4.78361 10.0347 6.97 12.2211 9.6475 13.5811L 11.7253 11.4986C 11.985 11.2389 12.3581 11.1633 12.6839 11.2672C 13.7417 11.6167 14.8797 11.8056 16.0556 11.8056C 16.5797 11.8056 17 12.2258 17 12.75L 17 16.0556C 17 16.5797 16.5797 17 16.0556 17C 7.18722 17 0 9.81278 0 0.944444C 0 0.420278 0.425 0 0.944444 0L 4.25 0C 4.77417 0 5.19444 0.420278 5.19444 0.944444C 5.19444 2.12028 5.38333 3.25833 5.73278 4.31611C 5.83667 4.64194 5.76111 5.015 5.50139 5.27472L 3.42361 7.36194Z"/>
</defs>
</svg>
